<?xml version="1.0" encoding="utf-8"?>
<!-- Generator: Adobe Illustrator 16.0.0, SVG Export Plug-In . SVG Version: 6.00 Build 0)  -->
<!DOCTYPE svg PUBLIC "-//W3C//DTD SVG 1.1//EN" "http://www.w3.org/Graphics/SVG/1.1/DTD/svg11.dtd">
<svg version="1.1" id="Capa_1" focusable="false" xmlns="http://www.w3.org/2000/svg" xmlns:xlink="http://www.w3.org/1999/xlink"
	 x="0px" y="0px" width="612px" height="792px" viewBox="0 0 612 792" enable-background="new 0 0 612 792" xml:space="preserve">
<path fill="#C9582A" d="M203.585,480.437c3.634-0.096,21.803-1.338,24.48-2.104c-2.295-2.486-41.692-0.956-65.025-47.43
	c-4.112-8.224-7.172-16.83-6.12-26.393c2.773-24.385,31.461-28.688,49.725-17.691c34.425,20.655,60.531,87.306,108.726,93.235
	c35.382,4.303,80.898-16.257,103.467-43.414c-0.574-0.096-0.766-0.191-0.957-0.096c-0.382,0.096-0.765,0.191-1.052,0.287
	c-31.843,11.57-90.174,9.275-128.807-14.152c-35.955-21.803-50.777-56.132-49.534-71.336c1.721-20.368,21.898-22.185,34.33-18.743
	c13.77,3.729,23.332,16.83,37.198,26.201c14.917,9.945,31.46,13.101,49.056,9.85c14.248-2.582,32.895-11.762,34.902-13.866
	c-1.052-0.096-1.721-0.096-2.391-0.191c-5.929-0.574-11.857-0.765-17.69-1.625C267.559,337.19,250.633,196.526,132.44,187.442
	c-42.362-3.251-95.051,7.746-130.337,33.469c-0.765,0.574-1.434,1.147-2.104,1.721c0.096,0.191,0.096,0.287,0.191,0.478
	c0.765,0,1.53-0.095,2.295-0.191c6.024-0.957,11.953-0.765,17.882,0.287c22.759,4.112,45.613,22.089,53.454,73.153
	c5.068,32.799-0.669,48.578,7.65,82.333C99.641,452.419,168.491,481.584,203.585,480.437L203.585,480.437z M72.006,213.261
	c-0.861-0.957-0.861-1.147-1.243-1.913c11.57-2.486,23.141-3.92,34.999-4.59C104.709,220.815,84.533,227.126,72.006,213.261z
	 M260.291,548.427c-40.927,1.147-87.975-25.532-118.097-58.714c-4.399-4.781-16.065-19.316-17.786-22.377l0.382-0.382
	c6.312,3.92,24.576,17.786,52.403,25.818c23.141,6.693,45.996,6.024,68.467-3.155c21.707-8.894,39.206-0.479,41.214,2.772
	c-17.69,3.634-19.221,4.208-22.95,7.555c-4.876,4.208-4.398,11.188,6.694,16.447c25.054,11.857,60.244-2.677,92.948,24.289
	c2.295,1.912,7.745,7.459,9.658,10.231c-0.096,0.191-0.287,0.287-0.383,0.479c-4.59-1.435-15.683-7.172-38.441-8.894
	C310.781,540.585,290.126,547.565,260.291,548.427L260.291,548.427z M427.443,307.451c15.683-4.973,39.493-12.813,63.591-3.155
	c15.396,6.215,25.054,17.882,30.696,33.086c3.347,8.989,4.876,18.838,4.876,27.444c-0.19,0-0.382,0-0.573,0.096
	c-0.191-0.382-0.383-0.861-0.479-1.243c-4.781-21.038-28.592-41.884-64.643-28.592c-48.003,17.786-124.694,9.275-169.16-45.9
	c-0.669-0.861-2.295-1.625-1.243-3.06c0.096-0.191,2.008,0.574,2.869,1.243c17.308,12.813,36.625,20.942,57.662,25.054
	C380.205,318.257,403.251,315.197,427.443,307.451L427.443,307.451z M525.65,419.811c-30.982,0.191-32.321,47.908-99.067,61.583
	c-17.403,3.538-37.007,4.398-42.936,4.016v-0.382c2.678-1.435,14.057-2.486,28.4-15.874c7.555-6.98,14.631-14.439,21.803-21.898
	c18.646-19.316,39.589-40.354,78.317-37.294c22.089,1.722,28.018,7.842,34.521,12.145c0.286,0.191,0.382,0.479,0.669,0.86
	c-0.479,0-0.669,0.096-0.86,0C539.803,420.385,532.822,419.811,525.65,419.811L525.65,419.811z M513.889,396.766
	c-0.096,0.19-0.096,0.382-0.191,0.573c-27.636-4.208-45.899-7.555-65.503,3.825c-16.256,9.467-30.026,19.604-59.287,23.332
	c-25.915,3.251-43.127,2.295-63.208-7.65c-0.287-0.191-0.574-0.382-0.957-0.573c0-0.191,0.096-0.286,0.096-0.478
	c23.811,3.633,34.808,4.877,53.072-5.547c21.324-12.336,38.346-25.436,68.181-29.644
	C474.396,376.684,495.146,382.995,513.889,396.766z M256.849,244.243c-0.574-0.574-1.052-1.147-2.008-2.199
	c7.267,0,28.4-1.147,51.063,8.032c18.838,7.65,30.791,20.082,48.004,31.461c10.614,6.98,22.376,8.893,34.808,7.746
	c4.111-0.383,8.128-1.148,12.24-1.626c0.382-0.095,0.86,0,1.434,0.287c-0.573,0.382-1.147,0.86-1.721,1.147
	c-7.746,3.825-15.97,6.024-24.48,6.79c-24.958,2.486-48.099-3.538-70.188-14.727C287.544,271.688,271.192,259.256,256.849,244.243z
	 M612,472.213c-3.347,2.965-21.707,11.093-40.832,5.068c-11.762-3.729-18.646-14.248-30.218-23.046
	c-9.563-7.268-19.985-7.554-26.87-8.032c0.573-0.765,0.86-1.147,1.147-1.339c14.152-8.797,29.166-11.666,45.23-6.216
	c11.953,4.017,18.36,12.91,29.07,23.142c10.327,9.945,20.081,9.467,22.089,10.041C611.713,471.735,611.809,471.831,612,472.213
	L612,472.213z M408.797,603.22c2.104,1.147,1.53,1.434,1.435,1.912c-17.69-1.339-32.417-7.268-44.753-21.229
	c-20.846-23.619-39.875-26.68-46.474-28.4c0.479-0.191,0.765-0.383,1.052-0.383c12.527,0.096,24.958,0.669,37.198,3.729
	c24.193,6.12,33.469,24.288,39.78,33.756C400.095,597.195,404.016,600.542,408.797,603.22L408.797,603.22z"/>
</svg>
